<mxfile host="app.diagrams.net" modified="2024-04-14T22:41:01.204Z" agent="Mozilla/5.0 (Windows NT 10.0; Win64; x64; rv:124.0) Gecko/20100101 Firefox/124.0" etag="s-SMMWW0jv6FuDnq1JLV" version="24.2.5" type="device">
  <diagram name="Page-1" id="Uk5b020VFf32xx-wXYkn">
    <mxGraphModel dx="1293" dy="523" grid="1" gridSize="1" guides="1" tooltips="1" connect="1" arrows="1" fold="1" page="1" pageScale="1" pageWidth="850" pageHeight="1100" math="0" shadow="0">
      <root>
        <mxCell id="0" />
        <mxCell id="1" parent="0" />
        <mxCell id="SWe4U_7ybFZL8F2LdfND-70" value="" style="shadow=0;dashed=0;align=center;html=1;strokeWidth=1;shape=mxgraph.electrical.abstract.mux2;operation=demux;whiteSpace=wrap;rotation=-90;" parent="1" vertex="1">
          <mxGeometry x="215" y="148" width="30" height="59" as="geometry" />
        </mxCell>
        <mxCell id="MTHECDVv07HErPj8eWL1-12" value="INBUS A" style="shape=step;perimeter=stepPerimeter;whiteSpace=wrap;html=1;fixedSize=1;direction=west;" parent="1" vertex="1">
          <mxGeometry x="70" y="420" width="320" height="20" as="geometry" />
        </mxCell>
        <mxCell id="MTHECDVv07HErPj8eWL1-10" value="OUTBUS A" style="shape=step;perimeter=stepPerimeter;whiteSpace=wrap;html=1;fixedSize=1;" parent="1" vertex="1">
          <mxGeometry x="70" y="380" width="320" height="20" as="geometry" />
        </mxCell>
        <mxCell id="MTHECDVv07HErPj8eWL1-13" value="INBUS B" style="shape=step;perimeter=stepPerimeter;whiteSpace=wrap;html=1;fixedSize=1;direction=west;" parent="1" vertex="1">
          <mxGeometry x="385" y="420" width="322.5" height="20" as="geometry" />
        </mxCell>
        <mxCell id="MTHECDVv07HErPj8eWL1-11" value="OUTBUS B" style="shape=step;perimeter=stepPerimeter;whiteSpace=wrap;html=1;fixedSize=1;" parent="1" vertex="1">
          <mxGeometry x="387.5" y="380" width="320" height="20" as="geometry" />
        </mxCell>
        <mxCell id="SWe4U_7ybFZL8F2LdfND-44" style="edgeStyle=orthogonalEdgeStyle;rounded=0;orthogonalLoop=1;jettySize=auto;html=1;exitX=0.25;exitY=1;exitDx=0;exitDy=0;entryX=0.25;entryY=0;entryDx=0;entryDy=0;" parent="1" source="MTHECDVv07HErPj8eWL1-1" target="MTHECDVv07HErPj8eWL1-54" edge="1">
          <mxGeometry relative="1" as="geometry">
            <Array as="points">
              <mxPoint x="105" y="456" />
              <mxPoint x="367" y="456" />
            </Array>
          </mxGeometry>
        </mxCell>
        <mxCell id="SWe4U_7ybFZL8F2LdfND-45" style="edgeStyle=orthogonalEdgeStyle;rounded=0;orthogonalLoop=1;jettySize=auto;html=1;entryX=0.576;entryY=0.009;entryDx=0;entryDy=0;entryPerimeter=0;" parent="1" target="MTHECDVv07HErPj8eWL1-11" edge="1">
          <mxGeometry relative="1" as="geometry">
            <mxPoint x="165" y="162" as="sourcePoint" />
            <mxPoint x="128.10999999999999" y="377.97999999999996" as="targetPoint" />
            <Array as="points">
              <mxPoint x="128" y="162" />
              <mxPoint x="128" y="370" />
              <mxPoint x="572" y="370" />
            </Array>
          </mxGeometry>
        </mxCell>
        <mxCell id="MTHECDVv07HErPj8eWL1-1" value="&amp;nbsp;32 | 31 | 30 |&amp;nbsp;&amp;nbsp;&amp;nbsp; A&amp;nbsp;&amp;nbsp;&amp;nbsp;&amp;nbsp; | 1 | 0" style="rounded=0;whiteSpace=wrap;html=1;" parent="1" vertex="1">
          <mxGeometry x="70" y="100" width="140" height="20" as="geometry" />
        </mxCell>
        <mxCell id="MTHECDVv07HErPj8eWL1-2" value="&amp;nbsp;31 | 30 |&amp;nbsp; &amp;nbsp;&amp;nbsp;&amp;nbsp; Q&amp;nbsp;&amp;nbsp;&amp;nbsp;&amp;nbsp;&amp;nbsp;&amp;nbsp;&amp;nbsp;&amp;nbsp; | 1 | 0" style="rounded=0;whiteSpace=wrap;html=1;" parent="1" vertex="1">
          <mxGeometry x="280" y="100" width="140" height="20" as="geometry" />
        </mxCell>
        <mxCell id="MTHECDVv07HErPj8eWL1-24" style="edgeStyle=orthogonalEdgeStyle;rounded=0;orthogonalLoop=1;jettySize=auto;html=1;exitX=0.5;exitY=1;exitDx=0;exitDy=0;entryX=0;entryY=0.1715686274509804;entryDx=0;entryDy=3;entryPerimeter=0;" parent="1" source="MTHECDVv07HErPj8eWL1-3" target="SWe4U_7ybFZL8F2LdfND-85" edge="1">
          <mxGeometry relative="1" as="geometry">
            <mxPoint x="590" y="165.9999999999999" as="targetPoint" />
          </mxGeometry>
        </mxCell>
        <mxCell id="SWe4U_7ybFZL8F2LdfND-89" style="edgeStyle=orthogonalEdgeStyle;rounded=0;orthogonalLoop=1;jettySize=auto;html=1;exitX=0.112;exitY=0.986;exitDx=0;exitDy=0;entryX=0.902;entryY=-0.002;entryDx=0;entryDy=0;entryPerimeter=0;exitPerimeter=0;" parent="1" source="MTHECDVv07HErPj8eWL1-3" target="MTHECDVv07HErPj8eWL1-54" edge="1">
          <mxGeometry relative="1" as="geometry">
            <Array as="points">
              <mxPoint x="616" y="348" />
              <mxPoint x="490" y="348" />
              <mxPoint x="490" y="450" />
              <mxPoint x="439" y="450" />
            </Array>
          </mxGeometry>
        </mxCell>
        <mxCell id="MTHECDVv07HErPj8eWL1-3" value="&amp;nbsp;31 | 30 | &amp;nbsp; &amp;nbsp; &amp;nbsp; M&amp;nbsp;&amp;nbsp;&amp;nbsp;&amp;nbsp;&amp;nbsp;&amp;nbsp;&amp;nbsp; | 1 | 0" style="rounded=0;whiteSpace=wrap;html=1;" parent="1" vertex="1">
          <mxGeometry x="600" y="100.5" width="140" height="20" as="geometry" />
        </mxCell>
        <mxCell id="MTHECDVv07HErPj8eWL1-7" style="edgeStyle=orthogonalEdgeStyle;rounded=0;orthogonalLoop=1;jettySize=auto;html=1;exitX=0.5;exitY=1;exitDx=0;exitDy=0;entryX=0.5;entryY=1;entryDx=0;entryDy=0;" parent="1" source="MTHECDVv07HErPj8eWL1-5" target="BvcUv2XEzLSBkX9pHvXN-80" edge="1">
          <mxGeometry relative="1" as="geometry">
            <mxPoint x="170" y="270" as="targetPoint" />
            <Array as="points">
              <mxPoint x="250" y="320" />
              <mxPoint x="163" y="320" />
              <mxPoint x="163" y="231" />
            </Array>
          </mxGeometry>
        </mxCell>
        <mxCell id="MTHECDVv07HErPj8eWL1-5" value="&lt;div&gt;33-bit&amp;nbsp;&lt;/div&gt;&lt;div&gt;ADDER&lt;/div&gt;" style="rounded=0;whiteSpace=wrap;html=1;" parent="1" vertex="1">
          <mxGeometry x="210" y="241.5" width="80" height="60" as="geometry" />
        </mxCell>
        <mxCell id="MTHECDVv07HErPj8eWL1-6" value="&lt;font style=&quot;font-size: 10px;&quot;&gt;cin&lt;/font&gt;" style="text;html=1;align=center;verticalAlign=middle;whiteSpace=wrap;rounded=0;" parent="1" vertex="1">
          <mxGeometry x="274" y="264" width="16" height="7.5" as="geometry" />
        </mxCell>
        <mxCell id="MTHECDVv07HErPj8eWL1-8" value="" style="endArrow=none;html=1;rounded=0;" parent="1" edge="1">
          <mxGeometry width="50" height="50" relative="1" as="geometry">
            <mxPoint x="217" y="322" as="sourcePoint" />
            <mxPoint x="223" y="317" as="targetPoint" />
          </mxGeometry>
        </mxCell>
        <mxCell id="MTHECDVv07HErPj8eWL1-9" value="&lt;font style=&quot;font-size: 8px;&quot;&gt;33&lt;/font&gt;" style="text;html=1;align=center;verticalAlign=middle;whiteSpace=wrap;rounded=0;" parent="1" vertex="1">
          <mxGeometry x="220" y="319" width="11" height="10" as="geometry" />
        </mxCell>
        <mxCell id="MTHECDVv07HErPj8eWL1-32" value="" style="endArrow=none;html=1;rounded=0;" parent="1" edge="1">
          <mxGeometry width="50" height="50" relative="1" as="geometry">
            <mxPoint x="667" y="141.5" as="sourcePoint" />
            <mxPoint x="673" y="136.5" as="targetPoint" />
          </mxGeometry>
        </mxCell>
        <mxCell id="MTHECDVv07HErPj8eWL1-33" value="&lt;font style=&quot;font-size: 8px;&quot;&gt;32&lt;/font&gt;" style="text;html=1;align=center;verticalAlign=middle;whiteSpace=wrap;rounded=0;" parent="1" vertex="1">
          <mxGeometry x="673" y="132.5" width="11" height="10" as="geometry" />
        </mxCell>
        <mxCell id="MTHECDVv07HErPj8eWL1-35" value="&#39;0&#39;" style="text;html=1;align=center;verticalAlign=middle;whiteSpace=wrap;rounded=0;" parent="1" vertex="1">
          <mxGeometry x="572.75" y="139" width="20" height="10" as="geometry" />
        </mxCell>
        <mxCell id="MTHECDVv07HErPj8eWL1-50" style="edgeStyle=orthogonalEdgeStyle;rounded=0;orthogonalLoop=1;jettySize=auto;html=1;exitX=1;exitY=0.5;exitDx=0;exitDy=0;exitPerimeter=0;entryX=0.75;entryY=0;entryDx=0;entryDy=0;" parent="1" source="MTHECDVv07HErPj8eWL1-38" target="MTHECDVv07HErPj8eWL1-5" edge="1">
          <mxGeometry relative="1" as="geometry">
            <Array as="points">
              <mxPoint x="270" y="226" />
            </Array>
            <mxPoint x="451" y="218.5" as="sourcePoint" />
            <mxPoint x="280" y="210" as="targetPoint" />
          </mxGeometry>
        </mxCell>
        <mxCell id="MTHECDVv07HErPj8eWL1-38" value="" style="shape=xor;whiteSpace=wrap;html=1;direction=west;rotation=0;" parent="1" vertex="1">
          <mxGeometry x="451.5" y="210.5" width="30" height="31" as="geometry" />
        </mxCell>
        <mxCell id="MTHECDVv07HErPj8eWL1-40" value="" style="verticalLabelPosition=bottom;verticalAlign=top;html=1;shape=mxgraph.basic.arc;startAngle=0.6775684567112534;endAngle=0.8315493153966425;rotation=0;" parent="1" vertex="1">
          <mxGeometry x="478.5" y="195" width="133.5" height="64" as="geometry" />
        </mxCell>
        <mxCell id="MTHECDVv07HErPj8eWL1-48" value="" style="endArrow=none;html=1;rounded=0;" parent="1" edge="1">
          <mxGeometry width="50" height="50" relative="1" as="geometry">
            <mxPoint x="466" y="142" as="sourcePoint" />
            <mxPoint x="472" y="137" as="targetPoint" />
          </mxGeometry>
        </mxCell>
        <mxCell id="MTHECDVv07HErPj8eWL1-49" value="&lt;font style=&quot;font-size: 8px;&quot;&gt;33&lt;/font&gt;" style="text;html=1;align=center;verticalAlign=middle;whiteSpace=wrap;rounded=0;" parent="1" vertex="1">
          <mxGeometry x="465" y="126" width="11" height="10" as="geometry" />
        </mxCell>
        <mxCell id="MTHECDVv07HErPj8eWL1-51" value="" style="endArrow=none;html=1;rounded=0;" parent="1" edge="1">
          <mxGeometry width="50" height="50" relative="1" as="geometry">
            <mxPoint x="336.5" y="229" as="sourcePoint" />
            <mxPoint x="342.5" y="224" as="targetPoint" />
          </mxGeometry>
        </mxCell>
        <mxCell id="MTHECDVv07HErPj8eWL1-52" value="&lt;font style=&quot;font-size: 8px;&quot;&gt;33&lt;/font&gt;" style="text;html=1;align=center;verticalAlign=middle;whiteSpace=wrap;rounded=0;" parent="1" vertex="1">
          <mxGeometry x="336.5" y="212" width="11" height="10" as="geometry" />
        </mxCell>
        <mxCell id="MTHECDVv07HErPj8eWL1-55" style="edgeStyle=orthogonalEdgeStyle;rounded=0;orthogonalLoop=1;jettySize=auto;html=1;exitX=1;exitY=0.25;exitDx=0;exitDy=0;" parent="1" edge="1">
          <mxGeometry relative="1" as="geometry">
            <mxPoint x="479.5000000000001" y="476.6521739130435" as="targetPoint" />
            <mxPoint x="449.4999999999999" y="476.5" as="sourcePoint" />
          </mxGeometry>
        </mxCell>
        <mxCell id="MTHECDVv07HErPj8eWL1-56" value="c0" style="edgeLabel;html=1;align=center;verticalAlign=middle;resizable=0;points=[];" parent="MTHECDVv07HErPj8eWL1-55" vertex="1" connectable="0">
          <mxGeometry x="0.585" y="-1" relative="1" as="geometry">
            <mxPoint x="12" y="-3" as="offset" />
          </mxGeometry>
        </mxCell>
        <mxCell id="MTHECDVv07HErPj8eWL1-114" style="edgeStyle=orthogonalEdgeStyle;rounded=0;orthogonalLoop=1;jettySize=auto;html=1;exitX=0;exitY=1;exitDx=0;exitDy=0;" parent="1" edge="1">
          <mxGeometry relative="1" as="geometry">
            <mxPoint x="319.5" y="517" as="targetPoint" />
            <mxPoint x="339.5" y="517" as="sourcePoint" />
          </mxGeometry>
        </mxCell>
        <mxCell id="MTHECDVv07HErPj8eWL1-115" value="fin" style="edgeLabel;html=1;align=center;verticalAlign=middle;resizable=0;points=[];" parent="MTHECDVv07HErPj8eWL1-114" vertex="1" connectable="0">
          <mxGeometry x="0.5333" relative="1" as="geometry">
            <mxPoint x="-12" y="-2" as="offset" />
          </mxGeometry>
        </mxCell>
        <mxCell id="SWe4U_7ybFZL8F2LdfND-163" style="edgeStyle=orthogonalEdgeStyle;rounded=0;orthogonalLoop=1;jettySize=auto;html=1;exitX=1;exitY=0.75;exitDx=0;exitDy=0;entryX=0.048;entryY=0.608;entryDx=0;entryDy=0;entryPerimeter=0;" parent="1" edge="1">
          <mxGeometry relative="1" as="geometry">
            <mxPoint x="479.44000000000005" y="507.24" as="targetPoint" />
            <mxPoint x="449.5" y="506.5" as="sourcePoint" />
          </mxGeometry>
        </mxCell>
        <mxCell id="MTHECDVv07HErPj8eWL1-54" value="&lt;div&gt;CONTROL&lt;/div&gt;&lt;div&gt;&amp;nbsp;UNIT&lt;/div&gt;" style="rounded=0;whiteSpace=wrap;html=1;" parent="1" vertex="1">
          <mxGeometry x="339.5" y="470" width="110" height="50" as="geometry" />
        </mxCell>
        <mxCell id="MTHECDVv07HErPj8eWL1-57" style="edgeStyle=orthogonalEdgeStyle;rounded=0;orthogonalLoop=1;jettySize=auto;html=1;exitX=1;exitY=0.25;exitDx=0;exitDy=0;" parent="1" edge="1">
          <mxGeometry relative="1" as="geometry">
            <mxPoint x="479.5000000000001" y="488.70217391304345" as="targetPoint" />
            <mxPoint x="449.4999999999999" y="488.54999999999995" as="sourcePoint" />
          </mxGeometry>
        </mxCell>
        <mxCell id="MTHECDVv07HErPj8eWL1-58" value="c2" style="edgeLabel;html=1;align=center;verticalAlign=middle;resizable=0;points=[];" parent="MTHECDVv07HErPj8eWL1-57" vertex="1" connectable="0">
          <mxGeometry x="0.585" y="-1" relative="1" as="geometry">
            <mxPoint x="12" y="-3" as="offset" />
          </mxGeometry>
        </mxCell>
        <mxCell id="MTHECDVv07HErPj8eWL1-62" value="" style="endArrow=classic;html=1;rounded=0;entryX=0.994;entryY=0.476;entryDx=0;entryDy=0;entryPerimeter=0;" parent="1" target="MTHECDVv07HErPj8eWL1-5" edge="1">
          <mxGeometry width="50" height="50" relative="1" as="geometry">
            <mxPoint x="531" y="270" as="sourcePoint" />
            <mxPoint x="337" y="272" as="targetPoint" />
          </mxGeometry>
        </mxCell>
        <mxCell id="MTHECDVv07HErPj8eWL1-63" value="" style="endArrow=classic;html=1;rounded=0;" parent="1" edge="1">
          <mxGeometry width="50" height="50" relative="1" as="geometry">
            <mxPoint x="551" y="281" as="sourcePoint" />
            <mxPoint x="531" y="281" as="targetPoint" />
          </mxGeometry>
        </mxCell>
        <mxCell id="MTHECDVv07HErPj8eWL1-64" value="c7" style="edgeLabel;html=1;align=center;verticalAlign=middle;resizable=0;points=[];" parent="MTHECDVv07HErPj8eWL1-63" vertex="1" connectable="0">
          <mxGeometry x="-0.7869" relative="1" as="geometry">
            <mxPoint x="8" y="-1" as="offset" />
          </mxGeometry>
        </mxCell>
        <mxCell id="MTHECDVv07HErPj8eWL1-93" style="edgeStyle=orthogonalEdgeStyle;rounded=0;orthogonalLoop=1;jettySize=auto;html=1;exitX=1;exitY=0.5;exitDx=0;exitDy=0;exitPerimeter=0;entryX=0.35;entryY=-0.008;entryDx=0;entryDy=0;entryPerimeter=0;" parent="1" edge="1" target="MTHECDVv07HErPj8eWL1-54" source="MTHECDVv07HErPj8eWL1-89">
          <mxGeometry relative="1" as="geometry">
            <Array as="points">
              <mxPoint x="340" y="450" />
              <mxPoint x="378" y="450" />
            </Array>
            <mxPoint x="340" y="410" as="sourcePoint" />
            <mxPoint x="378" y="460" as="targetPoint" />
          </mxGeometry>
        </mxCell>
        <mxCell id="MTHECDVv07HErPj8eWL1-89" value="" style="shape=or;whiteSpace=wrap;html=1;direction=south;" parent="1" vertex="1">
          <mxGeometry x="319.5" y="342" width="40" height="20" as="geometry" />
        </mxCell>
        <mxCell id="MTHECDVv07HErPj8eWL1-108" value="" style="endArrow=classic;html=1;rounded=0;" parent="1" edge="1">
          <mxGeometry width="50" height="50" relative="1" as="geometry">
            <mxPoint x="319.5" y="480" as="sourcePoint" />
            <mxPoint x="339.5" y="480" as="targetPoint" />
          </mxGeometry>
        </mxCell>
        <mxCell id="MTHECDVv07HErPj8eWL1-109" value="bgn" style="edgeLabel;html=1;align=center;verticalAlign=middle;resizable=0;points=[];" parent="MTHECDVv07HErPj8eWL1-108" vertex="1" connectable="0">
          <mxGeometry x="0.3385" relative="1" as="geometry">
            <mxPoint x="-24" y="-1" as="offset" />
          </mxGeometry>
        </mxCell>
        <mxCell id="MTHECDVv07HErPj8eWL1-94" style="edgeStyle=orthogonalEdgeStyle;rounded=0;orthogonalLoop=1;jettySize=auto;html=1;entryX=0.66;entryY=0.995;entryDx=0;entryDy=0;entryPerimeter=0;" parent="1" target="MTHECDVv07HErPj8eWL1-3" edge="1">
          <mxGeometry relative="1" as="geometry">
            <mxPoint x="658" y="421" as="sourcePoint" />
            <Array as="points">
              <mxPoint x="657" y="420" />
              <mxPoint x="657" y="340" />
              <mxPoint x="692" y="340" />
              <mxPoint x="692" y="120" />
            </Array>
          </mxGeometry>
        </mxCell>
        <mxCell id="MTHECDVv07HErPj8eWL1-110" value="" style="endArrow=classic;html=1;rounded=0;" parent="1" edge="1">
          <mxGeometry width="50" height="50" relative="1" as="geometry">
            <mxPoint x="319.5" y="491" as="sourcePoint" />
            <mxPoint x="339.5" y="491" as="targetPoint" />
          </mxGeometry>
        </mxCell>
        <mxCell id="MTHECDVv07HErPj8eWL1-111" value="clk" style="edgeLabel;html=1;align=center;verticalAlign=middle;resizable=0;points=[];" parent="MTHECDVv07HErPj8eWL1-110" vertex="1" connectable="0">
          <mxGeometry x="0.3385" relative="1" as="geometry">
            <mxPoint x="-22" y="-1" as="offset" />
          </mxGeometry>
        </mxCell>
        <mxCell id="MTHECDVv07HErPj8eWL1-112" value="" style="endArrow=classic;html=1;rounded=0;" parent="1" edge="1">
          <mxGeometry width="50" height="50" relative="1" as="geometry">
            <mxPoint x="319.5" y="503" as="sourcePoint" />
            <mxPoint x="339.5" y="503" as="targetPoint" />
          </mxGeometry>
        </mxCell>
        <mxCell id="MTHECDVv07HErPj8eWL1-113" value="rst_b" style="edgeLabel;html=1;align=center;verticalAlign=middle;resizable=0;points=[];" parent="MTHECDVv07HErPj8eWL1-112" vertex="1" connectable="0">
          <mxGeometry x="0.3385" relative="1" as="geometry">
            <mxPoint x="-26" y="-1" as="offset" />
          </mxGeometry>
        </mxCell>
        <mxCell id="MTHECDVv07HErPj8eWL1-131" value="" style="endArrow=classic;html=1;rounded=0;entryX=0.428;entryY=0.002;entryDx=0;entryDy=0;entryPerimeter=0;" parent="1" target="MTHECDVv07HErPj8eWL1-1" edge="1">
          <mxGeometry width="50" height="50" relative="1" as="geometry">
            <mxPoint x="130" y="80" as="sourcePoint" />
            <mxPoint x="370" y="60" as="targetPoint" />
          </mxGeometry>
        </mxCell>
        <mxCell id="MTHECDVv07HErPj8eWL1-132" value="c0" style="edgeLabel;html=1;align=center;verticalAlign=middle;resizable=0;points=[];" parent="MTHECDVv07HErPj8eWL1-131" vertex="1" connectable="0">
          <mxGeometry x="-0.7598" relative="1" as="geometry">
            <mxPoint y="-2" as="offset" />
          </mxGeometry>
        </mxCell>
        <mxCell id="MTHECDVv07HErPj8eWL1-133" value="" style="endArrow=classic;html=1;rounded=0;entryX=0.428;entryY=0.002;entryDx=0;entryDy=0;entryPerimeter=0;" parent="1" edge="1">
          <mxGeometry width="50" height="50" relative="1" as="geometry">
            <mxPoint x="187.49" y="80" as="sourcePoint" />
            <mxPoint x="187.49" y="100" as="targetPoint" />
          </mxGeometry>
        </mxCell>
        <mxCell id="MTHECDVv07HErPj8eWL1-134" value="c11" style="edgeLabel;html=1;align=center;verticalAlign=middle;resizable=0;points=[];" parent="MTHECDVv07HErPj8eWL1-133" vertex="1" connectable="0">
          <mxGeometry x="-0.7598" relative="1" as="geometry">
            <mxPoint y="-2" as="offset" />
          </mxGeometry>
        </mxCell>
        <mxCell id="SWe4U_7ybFZL8F2LdfND-4" value="2 |&amp;nbsp; CNT1 | 0" style="rounded=0;whiteSpace=wrap;html=1;" parent="1" vertex="1">
          <mxGeometry x="306.5" y="297" width="70" height="20" as="geometry" />
        </mxCell>
        <mxCell id="SWe4U_7ybFZL8F2LdfND-10" style="edgeStyle=orthogonalEdgeStyle;rounded=0;orthogonalLoop=1;jettySize=auto;html=1;exitX=0.107;exitY=1.008;exitDx=0;exitDy=0;entryX=0;entryY=0.75;entryDx=0;entryDy=0;entryPerimeter=0;exitPerimeter=0;" parent="1" source="SWe4U_7ybFZL8F2LdfND-4" target="MTHECDVv07HErPj8eWL1-89" edge="1">
          <mxGeometry relative="1" as="geometry">
            <mxPoint x="324" y="322" as="sourcePoint" />
            <Array as="points">
              <mxPoint x="314" y="327" />
              <mxPoint x="330" y="327" />
            </Array>
          </mxGeometry>
        </mxCell>
        <mxCell id="SWe4U_7ybFZL8F2LdfND-11" style="edgeStyle=orthogonalEdgeStyle;rounded=0;orthogonalLoop=1;jettySize=auto;html=1;exitX=0.907;exitY=1.015;exitDx=0;exitDy=0;entryX=0;entryY=0.25;entryDx=0;entryDy=0;entryPerimeter=0;exitPerimeter=0;" parent="1" source="SWe4U_7ybFZL8F2LdfND-4" target="MTHECDVv07HErPj8eWL1-89" edge="1">
          <mxGeometry relative="1" as="geometry">
            <mxPoint x="359" y="322" as="sourcePoint" />
            <Array as="points">
              <mxPoint x="370" y="327" />
              <mxPoint x="349" y="327" />
            </Array>
          </mxGeometry>
        </mxCell>
        <mxCell id="SWe4U_7ybFZL8F2LdfND-12" style="edgeStyle=orthogonalEdgeStyle;rounded=0;orthogonalLoop=1;jettySize=auto;html=1;exitX=0.473;exitY=1.008;exitDx=0;exitDy=0;entryX=0;entryY=0.5;entryDx=0;entryDy=0;entryPerimeter=0;exitPerimeter=0;" parent="1" source="SWe4U_7ybFZL8F2LdfND-4" target="MTHECDVv07HErPj8eWL1-89" edge="1">
          <mxGeometry relative="1" as="geometry">
            <mxPoint x="341.5" y="322" as="sourcePoint" />
          </mxGeometry>
        </mxCell>
        <mxCell id="SWe4U_7ybFZL8F2LdfND-13" value="" style="endArrow=classic;html=1;rounded=0;entryX=0.428;entryY=0.002;entryDx=0;entryDy=0;entryPerimeter=0;" parent="1" edge="1">
          <mxGeometry width="50" height="50" relative="1" as="geometry">
            <mxPoint x="321.5" y="277" as="sourcePoint" />
            <mxPoint x="321.5" y="297" as="targetPoint" />
          </mxGeometry>
        </mxCell>
        <mxCell id="SWe4U_7ybFZL8F2LdfND-14" value="c0" style="edgeLabel;html=1;align=center;verticalAlign=middle;resizable=0;points=[];" parent="SWe4U_7ybFZL8F2LdfND-13" vertex="1" connectable="0">
          <mxGeometry x="-0.7598" relative="1" as="geometry">
            <mxPoint y="-2" as="offset" />
          </mxGeometry>
        </mxCell>
        <mxCell id="SWe4U_7ybFZL8F2LdfND-17" value="" style="endArrow=classic;html=1;rounded=0;entryX=0.428;entryY=0.002;entryDx=0;entryDy=0;entryPerimeter=0;" parent="1" edge="1">
          <mxGeometry width="50" height="50" relative="1" as="geometry">
            <mxPoint x="353" y="277" as="sourcePoint" />
            <mxPoint x="353" y="297" as="targetPoint" />
          </mxGeometry>
        </mxCell>
        <mxCell id="SWe4U_7ybFZL8F2LdfND-18" value="c8" style="edgeLabel;html=1;align=center;verticalAlign=middle;resizable=0;points=[];" parent="SWe4U_7ybFZL8F2LdfND-17" vertex="1" connectable="0">
          <mxGeometry x="-0.7598" relative="1" as="geometry">
            <mxPoint y="-2" as="offset" />
          </mxGeometry>
        </mxCell>
        <mxCell id="SWe4U_7ybFZL8F2LdfND-38" style="edgeStyle=orthogonalEdgeStyle;rounded=0;orthogonalLoop=1;jettySize=auto;html=1;exitX=1;exitY=0.5;exitDx=0;exitDy=0;exitPerimeter=0;entryX=0.75;entryY=0;entryDx=0;entryDy=0;" parent="1" source="SWe4U_7ybFZL8F2LdfND-28" target="MTHECDVv07HErPj8eWL1-54" edge="1">
          <mxGeometry relative="1" as="geometry">
            <Array as="points">
              <mxPoint x="432" y="450" />
              <mxPoint x="422" y="450" />
            </Array>
          </mxGeometry>
        </mxCell>
        <mxCell id="SWe4U_7ybFZL8F2LdfND-28" value="" style="shape=or;whiteSpace=wrap;html=1;direction=south;" parent="1" vertex="1">
          <mxGeometry x="411.5" y="342" width="40" height="20" as="geometry" />
        </mxCell>
        <mxCell id="SWe4U_7ybFZL8F2LdfND-29" value="2 |&amp;nbsp; CNT2 | 0" style="rounded=0;whiteSpace=wrap;html=1;" parent="1" vertex="1">
          <mxGeometry x="401" y="297" width="70" height="20" as="geometry" />
        </mxCell>
        <mxCell id="SWe4U_7ybFZL8F2LdfND-30" style="edgeStyle=orthogonalEdgeStyle;rounded=0;orthogonalLoop=1;jettySize=auto;html=1;entryX=0;entryY=0.75;entryDx=0;entryDy=0;entryPerimeter=0;" parent="1" target="SWe4U_7ybFZL8F2LdfND-28" edge="1">
          <mxGeometry relative="1" as="geometry">
            <mxPoint x="407" y="323" as="sourcePoint" />
            <Array as="points">
              <mxPoint x="407" y="327" />
              <mxPoint x="422" y="327" />
            </Array>
          </mxGeometry>
        </mxCell>
        <mxCell id="SWe4U_7ybFZL8F2LdfND-31" style="edgeStyle=orthogonalEdgeStyle;rounded=0;orthogonalLoop=1;jettySize=auto;html=1;entryX=0;entryY=0.25;entryDx=0;entryDy=0;entryPerimeter=0;" parent="1" target="SWe4U_7ybFZL8F2LdfND-28" edge="1">
          <mxGeometry relative="1" as="geometry">
            <mxPoint x="465" y="323" as="sourcePoint" />
            <Array as="points">
              <mxPoint x="465" y="327" />
              <mxPoint x="441" y="327" />
            </Array>
          </mxGeometry>
        </mxCell>
        <mxCell id="SWe4U_7ybFZL8F2LdfND-33" value="" style="endArrow=classic;html=1;rounded=0;entryX=0.428;entryY=0.002;entryDx=0;entryDy=0;entryPerimeter=0;" parent="1" edge="1">
          <mxGeometry width="50" height="50" relative="1" as="geometry">
            <mxPoint x="416" y="277" as="sourcePoint" />
            <mxPoint x="416" y="297" as="targetPoint" />
          </mxGeometry>
        </mxCell>
        <mxCell id="SWe4U_7ybFZL8F2LdfND-34" value="c0" style="edgeLabel;html=1;align=center;verticalAlign=middle;resizable=0;points=[];" parent="SWe4U_7ybFZL8F2LdfND-33" vertex="1" connectable="0">
          <mxGeometry x="-0.7598" relative="1" as="geometry">
            <mxPoint y="-2" as="offset" />
          </mxGeometry>
        </mxCell>
        <mxCell id="SWe4U_7ybFZL8F2LdfND-35" value="" style="endArrow=classic;html=1;rounded=0;entryX=0.428;entryY=0.002;entryDx=0;entryDy=0;entryPerimeter=0;" parent="1" edge="1">
          <mxGeometry width="50" height="50" relative="1" as="geometry">
            <mxPoint x="459.5" y="277" as="sourcePoint" />
            <mxPoint x="459.5" y="297" as="targetPoint" />
            <Array as="points">
              <mxPoint x="459.5" y="287" />
            </Array>
          </mxGeometry>
        </mxCell>
        <mxCell id="SWe4U_7ybFZL8F2LdfND-36" value="c11" style="edgeLabel;html=1;align=center;verticalAlign=middle;resizable=0;points=[];" parent="SWe4U_7ybFZL8F2LdfND-35" vertex="1" connectable="0">
          <mxGeometry x="-0.7598" relative="1" as="geometry">
            <mxPoint y="-2" as="offset" />
          </mxGeometry>
        </mxCell>
        <mxCell id="SWe4U_7ybFZL8F2LdfND-39" value="" style="endArrow=classic;html=1;rounded=0;entryX=0.428;entryY=0.002;entryDx=0;entryDy=0;entryPerimeter=0;" parent="1" edge="1">
          <mxGeometry width="50" height="50" relative="1" as="geometry">
            <mxPoint x="439.5" y="277" as="sourcePoint" />
            <mxPoint x="439.5" y="297" as="targetPoint" />
          </mxGeometry>
        </mxCell>
        <mxCell id="SWe4U_7ybFZL8F2LdfND-40" value="c2" style="edgeLabel;html=1;align=center;verticalAlign=middle;resizable=0;points=[];" parent="SWe4U_7ybFZL8F2LdfND-39" vertex="1" connectable="0">
          <mxGeometry x="-0.7598" relative="1" as="geometry">
            <mxPoint y="-2" as="offset" />
          </mxGeometry>
        </mxCell>
        <mxCell id="SWe4U_7ybFZL8F2LdfND-50" value="&amp;nbsp;31 | 30 |&amp;nbsp; &amp;nbsp;&amp;nbsp;&amp;nbsp; Q&#39;&amp;nbsp; &amp;nbsp; &amp;nbsp; &amp;nbsp; &amp;nbsp;| 1 | 0" style="rounded=0;whiteSpace=wrap;html=1;" parent="1" vertex="1">
          <mxGeometry x="280" y="166" width="140" height="20" as="geometry" />
        </mxCell>
        <mxCell id="SWe4U_7ybFZL8F2LdfND-51" value="" style="endArrow=classic;html=1;rounded=0;entryX=1;entryY=0.5;entryDx=0;entryDy=0;" parent="1" target="SWe4U_7ybFZL8F2LdfND-50" edge="1">
          <mxGeometry width="50" height="50" relative="1" as="geometry">
            <mxPoint x="440" y="176" as="sourcePoint" />
            <mxPoint x="330" y="234" as="targetPoint" />
          </mxGeometry>
        </mxCell>
        <mxCell id="BvcUv2XEzLSBkX9pHvXN-39" value="c4" style="edgeLabel;html=1;align=center;verticalAlign=middle;resizable=0;points=[];" vertex="1" connectable="0" parent="SWe4U_7ybFZL8F2LdfND-51">
          <mxGeometry x="-0.4895" y="-1" relative="1" as="geometry">
            <mxPoint x="4" as="offset" />
          </mxGeometry>
        </mxCell>
        <mxCell id="SWe4U_7ybFZL8F2LdfND-59" style="edgeStyle=orthogonalEdgeStyle;rounded=0;orthogonalLoop=1;jettySize=auto;html=1;exitX=1;exitY=0.5;exitDx=0;exitDy=-5;exitPerimeter=0;entryX=1;entryY=0.5;entryDx=0;entryDy=0;" parent="1" source="SWe4U_7ybFZL8F2LdfND-54" target="MTHECDVv07HErPj8eWL1-2" edge="1">
          <mxGeometry relative="1" as="geometry" />
        </mxCell>
        <mxCell id="SWe4U_7ybFZL8F2LdfND-54" value="" style="shadow=0;dashed=0;align=center;html=1;strokeWidth=1;shape=mxgraph.electrical.abstract.mux2;whiteSpace=wrap;rotation=-180;" parent="1" vertex="1">
          <mxGeometry x="471" y="82" width="37.25" height="45" as="geometry" />
        </mxCell>
        <mxCell id="SWe4U_7ybFZL8F2LdfND-55" style="edgeStyle=orthogonalEdgeStyle;rounded=0;orthogonalLoop=1;jettySize=auto;html=1;exitX=0;exitY=0.5;exitDx=0;exitDy=0;entryX=0;entryY=0.4833333333333334;entryDx=0;entryDy=3;entryPerimeter=0;" parent="1" source="MTHECDVv07HErPj8eWL1-3" target="SWe4U_7ybFZL8F2LdfND-54" edge="1">
          <mxGeometry relative="1" as="geometry" />
        </mxCell>
        <mxCell id="SWe4U_7ybFZL8F2LdfND-60" value="" style="endArrow=classic;html=1;rounded=0;entryX=1;entryY=0.5;entryDx=0;entryDy=0;exitX=0;exitY=0.5;exitDx=0;exitDy=0;" parent="1" source="MTHECDVv07HErPj8eWL1-2" target="MTHECDVv07HErPj8eWL1-1" edge="1">
          <mxGeometry width="50" height="50" relative="1" as="geometry">
            <mxPoint x="280" y="120" as="sourcePoint" />
            <mxPoint x="330" y="70" as="targetPoint" />
          </mxGeometry>
        </mxCell>
        <mxCell id="SWe4U_7ybFZL8F2LdfND-73" style="edgeStyle=orthogonalEdgeStyle;rounded=0;orthogonalLoop=1;jettySize=auto;html=1;entryX=0.5;entryY=0;entryDx=0;entryDy=0;exitX=1;exitY=0.5466101694915254;exitDx=0;exitDy=3;exitPerimeter=0;" parent="1" edge="1" source="SWe4U_7ybFZL8F2LdfND-70">
          <mxGeometry relative="1" as="geometry">
            <mxPoint x="229.0025" y="155.088" as="sourcePoint" />
            <mxPoint x="232.95" y="380" as="targetPoint" />
            <Array as="points">
              <mxPoint x="236" y="155" />
              <mxPoint x="509" y="155" />
              <mxPoint x="509" y="365" />
              <mxPoint x="233" y="365" />
            </Array>
          </mxGeometry>
        </mxCell>
        <mxCell id="SWe4U_7ybFZL8F2LdfND-88" style="edgeStyle=orthogonalEdgeStyle;rounded=0;orthogonalLoop=1;jettySize=auto;html=1;exitX=0;exitY=0.4152542372881356;exitDx=0;exitDy=0;exitPerimeter=0;entryX=0.25;entryY=0;entryDx=0;entryDy=0;" parent="1" source="SWe4U_7ybFZL8F2LdfND-70" target="MTHECDVv07HErPj8eWL1-5" edge="1">
          <mxGeometry relative="1" as="geometry">
            <Array as="points">
              <mxPoint x="230" y="193" />
            </Array>
          </mxGeometry>
        </mxCell>
        <mxCell id="SWe4U_7ybFZL8F2LdfND-83" value="&#39;0&#39;" style="text;html=1;align=center;verticalAlign=middle;whiteSpace=wrap;rounded=0;" parent="1" vertex="1">
          <mxGeometry x="211" y="146" width="20" height="10" as="geometry" />
        </mxCell>
        <mxCell id="SWe4U_7ybFZL8F2LdfND-85" value="" style="shadow=0;dashed=0;align=center;html=1;strokeWidth=1;shape=mxgraph.electrical.abstract.mux2;whiteSpace=wrap;rotation=90;" parent="1" vertex="1">
          <mxGeometry x="566" y="173" width="36.5" height="51" as="geometry" />
        </mxCell>
        <mxCell id="SWe4U_7ybFZL8F2LdfND-90" style="edgeStyle=orthogonalEdgeStyle;rounded=0;orthogonalLoop=1;jettySize=auto;html=1;exitX=0.5;exitY=1;exitDx=0;exitDy=0;entryX=0;entryY=0.5147058823529411;entryDx=0;entryDy=3;entryPerimeter=0;" parent="1" source="SWe4U_7ybFZL8F2LdfND-50" target="SWe4U_7ybFZL8F2LdfND-85" edge="1">
          <mxGeometry relative="1" as="geometry">
            <Array as="points">
              <mxPoint x="350" y="202" />
              <mxPoint x="490" y="202" />
              <mxPoint x="490" y="166" />
              <mxPoint x="581" y="166" />
            </Array>
          </mxGeometry>
        </mxCell>
        <mxCell id="SWe4U_7ybFZL8F2LdfND-93" value="" style="endArrow=none;html=1;rounded=0;" parent="1" edge="1">
          <mxGeometry width="50" height="50" relative="1" as="geometry">
            <mxPoint x="470" y="175" as="sourcePoint" />
            <mxPoint x="490" y="175" as="targetPoint" />
            <Array as="points">
              <mxPoint x="480" y="175" />
            </Array>
          </mxGeometry>
        </mxCell>
        <mxCell id="SWe4U_7ybFZL8F2LdfND-94" value="&#39;0&#39;" style="text;html=1;align=center;verticalAlign=middle;whiteSpace=wrap;rounded=0;" parent="1" vertex="1">
          <mxGeometry x="456" y="168" width="20" height="10" as="geometry" />
        </mxCell>
        <mxCell id="SWe4U_7ybFZL8F2LdfND-95" value="" style="endArrow=classic;html=1;rounded=0;entryX=0.5;entryY=1;entryDx=0;entryDy=0;" parent="1" target="MTHECDVv07HErPj8eWL1-2" edge="1">
          <mxGeometry width="50" height="50" relative="1" as="geometry">
            <mxPoint x="350" y="140" as="sourcePoint" />
            <mxPoint x="350" y="170" as="targetPoint" />
          </mxGeometry>
        </mxCell>
        <mxCell id="SWe4U_7ybFZL8F2LdfND-96" value="c2" style="edgeLabel;html=1;align=center;verticalAlign=middle;resizable=0;points=[];" parent="1" vertex="1" connectable="0">
          <mxGeometry x="350.0000000000001" y="111.00222222222217" as="geometry">
            <mxPoint x="136" y="-29" as="offset" />
          </mxGeometry>
        </mxCell>
        <mxCell id="SWe4U_7ybFZL8F2LdfND-100" value="c10" style="edgeLabel;html=1;align=center;verticalAlign=middle;resizable=0;points=[];" parent="1" vertex="1" connectable="0">
          <mxGeometry x="423.0000000000001" y="234.50222222222217" as="geometry">
            <mxPoint x="136" y="-29" as="offset" />
          </mxGeometry>
        </mxCell>
        <mxCell id="SWe4U_7ybFZL8F2LdfND-103" value="" style="endArrow=classic;html=1;rounded=0;" parent="1" edge="1">
          <mxGeometry width="50" height="50" relative="1" as="geometry">
            <mxPoint x="760.5" y="112.5" as="sourcePoint" />
            <mxPoint x="740.5" y="112.50999999999999" as="targetPoint" />
            <Array as="points">
              <mxPoint x="740.5" y="112.50999999999999" />
            </Array>
          </mxGeometry>
        </mxCell>
        <mxCell id="SWe4U_7ybFZL8F2LdfND-104" value="&#39;0&#39;" style="edgeLabel;html=1;align=center;verticalAlign=middle;resizable=0;points=[];" parent="SWe4U_7ybFZL8F2LdfND-103" vertex="1" connectable="0">
          <mxGeometry x="-0.7869" relative="1" as="geometry">
            <mxPoint y="-1" as="offset" />
          </mxGeometry>
        </mxCell>
        <mxCell id="SWe4U_7ybFZL8F2LdfND-113" value="" style="endArrow=classic;html=1;rounded=0;entryX=0.433;entryY=0.003;entryDx=0;entryDy=0;entryPerimeter=0;" parent="1" edge="1">
          <mxGeometry width="50" height="50" relative="1" as="geometry">
            <mxPoint x="677.5" y="78.5" as="sourcePoint" />
            <mxPoint x="677.6199999999999" y="100.56" as="targetPoint" />
            <Array as="points" />
          </mxGeometry>
        </mxCell>
        <mxCell id="BvcUv2XEzLSBkX9pHvXN-8" value="c2" style="edgeLabel;html=1;align=center;verticalAlign=middle;resizable=0;points=[];" vertex="1" connectable="0" parent="SWe4U_7ybFZL8F2LdfND-113">
          <mxGeometry x="-0.0741" y="-1" relative="1" as="geometry">
            <mxPoint x="1" y="-8" as="offset" />
          </mxGeometry>
        </mxCell>
        <mxCell id="SWe4U_7ybFZL8F2LdfND-120" value="" style="shape=partialRectangle;whiteSpace=wrap;html=1;bottom=0;right=0;fillColor=none;rotation=90;" parent="1" vertex="1">
          <mxGeometry x="589.63" y="142.62" width="7.75" height="10" as="geometry" />
        </mxCell>
        <mxCell id="SWe4U_7ybFZL8F2LdfND-122" value="" style="shape=xor;whiteSpace=wrap;html=1;rotation=90;" parent="1" vertex="1">
          <mxGeometry x="146" y="68" width="20" height="20" as="geometry" />
        </mxCell>
        <mxCell id="SWe4U_7ybFZL8F2LdfND-124" style="edgeStyle=orthogonalEdgeStyle;rounded=0;orthogonalLoop=1;jettySize=auto;html=1;exitX=1;exitY=0.5;exitDx=0;exitDy=0;exitPerimeter=0;entryX=0.612;entryY=0.032;entryDx=0;entryDy=0;entryPerimeter=0;" parent="1" source="SWe4U_7ybFZL8F2LdfND-122" target="MTHECDVv07HErPj8eWL1-1" edge="1">
          <mxGeometry relative="1" as="geometry" />
        </mxCell>
        <mxCell id="SWe4U_7ybFZL8F2LdfND-139" value="" style="shape=xor;whiteSpace=wrap;html=1;rotation=90;" parent="1" vertex="1">
          <mxGeometry x="337" y="68" width="20" height="20" as="geometry" />
        </mxCell>
        <mxCell id="SWe4U_7ybFZL8F2LdfND-140" style="edgeStyle=orthogonalEdgeStyle;rounded=0;orthogonalLoop=1;jettySize=auto;html=1;exitX=1;exitY=0.5;exitDx=0;exitDy=0;exitPerimeter=0;entryX=0.612;entryY=0.032;entryDx=0;entryDy=0;entryPerimeter=0;" parent="1" source="SWe4U_7ybFZL8F2LdfND-139" edge="1">
          <mxGeometry relative="1" as="geometry">
            <mxPoint x="347" y="101" as="targetPoint" />
          </mxGeometry>
        </mxCell>
        <mxCell id="SWe4U_7ybFZL8F2LdfND-158" style="edgeStyle=orthogonalEdgeStyle;rounded=0;orthogonalLoop=1;jettySize=auto;html=1;" parent="1" edge="1">
          <mxGeometry relative="1" as="geometry">
            <mxPoint x="509" y="304" as="targetPoint" />
            <mxPoint x="490.5" y="303.83" as="sourcePoint" />
          </mxGeometry>
        </mxCell>
        <mxCell id="BvcUv2XEzLSBkX9pHvXN-3" value="c12" style="edgeLabel;html=1;align=center;verticalAlign=middle;resizable=0;points=[];" vertex="1" connectable="0" parent="SWe4U_7ybFZL8F2LdfND-158">
          <mxGeometry x="0.1318" y="-3" relative="1" as="geometry">
            <mxPoint x="-14" y="-4" as="offset" />
          </mxGeometry>
        </mxCell>
        <mxCell id="SWe4U_7ybFZL8F2LdfND-162" style="edgeStyle=orthogonalEdgeStyle;rounded=0;orthogonalLoop=1;jettySize=auto;html=1;entryX=0.75;entryY=0;entryDx=0;entryDy=0;" parent="1" edge="1" target="MTHECDVv07HErPj8eWL1-2">
          <mxGeometry relative="1" as="geometry">
            <mxPoint x="385.05999999999995" y="99" as="targetPoint" />
            <mxPoint x="385" y="80" as="sourcePoint" />
          </mxGeometry>
        </mxCell>
        <mxCell id="BvcUv2XEzLSBkX9pHvXN-21" value="fq" style="edgeLabel;html=1;align=center;verticalAlign=middle;resizable=0;points=[];" vertex="1" connectable="0" parent="SWe4U_7ybFZL8F2LdfND-162">
          <mxGeometry x="-0.4018" y="1" relative="1" as="geometry">
            <mxPoint x="-1" y="-5" as="offset" />
          </mxGeometry>
        </mxCell>
        <mxCell id="SWe4U_7ybFZL8F2LdfND-164" value="&lt;font style=&quot;font-size: 11px;&quot;&gt;fq&lt;/font&gt;" style="text;html=1;align=center;verticalAlign=middle;resizable=0;points=[];autosize=1;strokeColor=none;fillColor=none;" parent="1" vertex="1">
          <mxGeometry x="469.5" y="489" width="30" height="30" as="geometry" />
        </mxCell>
        <mxCell id="SWe4U_7ybFZL8F2LdfND-168" style="edgeStyle=orthogonalEdgeStyle;rounded=0;orthogonalLoop=1;jettySize=auto;html=1;exitX=1;exitY=1;exitDx=0;exitDy=0;entryX=0.285;entryY=0.98;entryDx=0;entryDy=0;entryPerimeter=0;" parent="1" edge="1">
          <mxGeometry relative="1" as="geometry">
            <mxPoint x="449.5" y="517.9999999999999" as="sourcePoint" />
            <mxPoint x="478.04999999999995" y="517.4" as="targetPoint" />
          </mxGeometry>
        </mxCell>
        <mxCell id="SWe4U_7ybFZL8F2LdfND-169" value="&lt;font style=&quot;font-size: 11px;&quot;&gt;fm&lt;/font&gt;" style="text;html=1;align=center;verticalAlign=middle;resizable=0;points=[];autosize=1;strokeColor=none;fillColor=none;" parent="1" vertex="1">
          <mxGeometry x="466" y="502" width="40" height="30" as="geometry" />
        </mxCell>
        <mxCell id="SWe4U_7ybFZL8F2LdfND-172" style="edgeStyle=orthogonalEdgeStyle;rounded=0;orthogonalLoop=1;jettySize=auto;html=1;entryX=0.918;entryY=-0.025;entryDx=0;entryDy=0;entryPerimeter=0;" parent="1" target="MTHECDVv07HErPj8eWL1-2" edge="1">
          <mxGeometry relative="1" as="geometry">
            <mxPoint x="410" y="80" as="sourcePoint" />
          </mxGeometry>
        </mxCell>
        <mxCell id="BvcUv2XEzLSBkX9pHvXN-22" value="fm" style="edgeLabel;html=1;align=center;verticalAlign=middle;resizable=0;points=[];" vertex="1" connectable="0" parent="SWe4U_7ybFZL8F2LdfND-172">
          <mxGeometry x="-0.8877" y="1" relative="1" as="geometry">
            <mxPoint as="offset" />
          </mxGeometry>
        </mxCell>
        <mxCell id="SWe4U_7ybFZL8F2LdfND-174" style="edgeStyle=orthogonalEdgeStyle;rounded=0;orthogonalLoop=1;jettySize=auto;html=1;" parent="1" edge="1">
          <mxGeometry relative="1" as="geometry">
            <mxPoint x="702.5" y="77.5" as="sourcePoint" />
            <Array as="points">
              <mxPoint x="702.5" y="77.5" />
            </Array>
            <mxPoint x="702.5" y="100.5" as="targetPoint" />
          </mxGeometry>
        </mxCell>
        <mxCell id="BvcUv2XEzLSBkX9pHvXN-9" value="fm" style="edgeLabel;html=1;align=center;verticalAlign=middle;resizable=0;points=[];" vertex="1" connectable="0" parent="SWe4U_7ybFZL8F2LdfND-174">
          <mxGeometry x="-0.4783" y="1" relative="1" as="geometry">
            <mxPoint x="-2" y="-4" as="offset" />
          </mxGeometry>
        </mxCell>
        <mxCell id="MTHECDVv07HErPj8eWL1-61" style="edgeStyle=orthogonalEdgeStyle;rounded=0;orthogonalLoop=1;jettySize=auto;html=1;exitX=1;exitY=0.5;exitDx=0;exitDy=0;entryX=0.018;entryY=0.639;entryDx=0;entryDy=0;entryPerimeter=0;" parent="1" edge="1" target="MTHECDVv07HErPj8eWL1-40" source="MTHECDVv07HErPj8eWL1-54">
          <mxGeometry relative="1" as="geometry">
            <mxPoint x="479.96849999999995" y="230.43999999999994" as="targetPoint" />
            <Array as="points">
              <mxPoint x="450" y="497" />
              <mxPoint x="531" y="497" />
              <mxPoint x="531" y="236" />
            </Array>
            <mxPoint x="451.76999999999987" y="579.25" as="sourcePoint" />
          </mxGeometry>
        </mxCell>
        <mxCell id="BvcUv2XEzLSBkX9pHvXN-10" value="" style="endArrow=classic;html=1;rounded=0;entryX=0.433;entryY=0.003;entryDx=0;entryDy=0;entryPerimeter=0;" edge="1" parent="1">
          <mxGeometry width="50" height="50" relative="1" as="geometry">
            <mxPoint x="655.5" y="78.5" as="sourcePoint" />
            <mxPoint x="655.5" y="100.5" as="targetPoint" />
            <Array as="points" />
          </mxGeometry>
        </mxCell>
        <mxCell id="BvcUv2XEzLSBkX9pHvXN-11" value="c0" style="edgeLabel;html=1;align=center;verticalAlign=middle;resizable=0;points=[];" vertex="1" connectable="0" parent="BvcUv2XEzLSBkX9pHvXN-10">
          <mxGeometry x="-0.0741" y="-1" relative="1" as="geometry">
            <mxPoint x="1" y="-8" as="offset" />
          </mxGeometry>
        </mxCell>
        <mxCell id="BvcUv2XEzLSBkX9pHvXN-13" value="" style="endArrow=none;html=1;rounded=0;" edge="1" parent="1">
          <mxGeometry width="50" height="50" relative="1" as="geometry">
            <mxPoint x="688.5" y="180" as="sourcePoint" />
            <mxPoint x="694.5" y="175" as="targetPoint" />
          </mxGeometry>
        </mxCell>
        <mxCell id="BvcUv2XEzLSBkX9pHvXN-14" value="&lt;font style=&quot;font-size: 8px;&quot;&gt;32&lt;/font&gt;" style="text;html=1;align=center;verticalAlign=middle;whiteSpace=wrap;rounded=0;" vertex="1" parent="1">
          <mxGeometry x="694.5" y="171" width="11" height="10" as="geometry" />
        </mxCell>
        <mxCell id="BvcUv2XEzLSBkX9pHvXN-15" value="" style="endArrow=classic;html=1;rounded=0;" edge="1" parent="1">
          <mxGeometry width="50" height="50" relative="1" as="geometry">
            <mxPoint x="712" y="300" as="sourcePoint" />
            <mxPoint x="692" y="300" as="targetPoint" />
          </mxGeometry>
        </mxCell>
        <mxCell id="BvcUv2XEzLSBkX9pHvXN-16" value="c0" style="edgeLabel;html=1;align=center;verticalAlign=middle;resizable=0;points=[];" vertex="1" connectable="0" parent="BvcUv2XEzLSBkX9pHvXN-15">
          <mxGeometry x="-0.514" y="1" relative="1" as="geometry">
            <mxPoint x="5" y="-2" as="offset" />
          </mxGeometry>
        </mxCell>
        <mxCell id="BvcUv2XEzLSBkX9pHvXN-18" value="" style="endArrow=none;html=1;rounded=0;" edge="1" parent="1">
          <mxGeometry width="50" height="50" relative="1" as="geometry">
            <mxPoint x="595.75" y="163.5" as="sourcePoint" />
            <mxPoint x="601.75" y="158.5" as="targetPoint" />
          </mxGeometry>
        </mxCell>
        <mxCell id="BvcUv2XEzLSBkX9pHvXN-19" value="&lt;font style=&quot;font-size: 8px;&quot;&gt;33&lt;/font&gt;" style="text;html=1;align=center;verticalAlign=middle;whiteSpace=wrap;rounded=0;" vertex="1" parent="1">
          <mxGeometry x="600.75" y="155" width="11" height="10" as="geometry" />
        </mxCell>
        <mxCell id="BvcUv2XEzLSBkX9pHvXN-23" value="" style="endArrow=classic;html=1;rounded=0;entryX=0.175;entryY=0.75;entryDx=0;entryDy=0;entryPerimeter=0;" edge="1" parent="1" target="SWe4U_7ybFZL8F2LdfND-139">
          <mxGeometry width="50" height="50" relative="1" as="geometry">
            <mxPoint x="330" y="60" as="sourcePoint" />
            <mxPoint x="380" y="40" as="targetPoint" />
            <Array as="points">
              <mxPoint x="342" y="60" />
            </Array>
          </mxGeometry>
        </mxCell>
        <mxCell id="BvcUv2XEzLSBkX9pHvXN-26" value="c2" style="edgeLabel;html=1;align=center;verticalAlign=middle;resizable=0;points=[];" vertex="1" connectable="0" parent="BvcUv2XEzLSBkX9pHvXN-23">
          <mxGeometry x="-0.7564" relative="1" as="geometry">
            <mxPoint x="-6" y="-1" as="offset" />
          </mxGeometry>
        </mxCell>
        <mxCell id="BvcUv2XEzLSBkX9pHvXN-25" value="" style="endArrow=classic;html=1;rounded=0;entryX=0.175;entryY=0.25;entryDx=0;entryDy=0;entryPerimeter=0;" edge="1" parent="1" target="SWe4U_7ybFZL8F2LdfND-139">
          <mxGeometry width="50" height="50" relative="1" as="geometry">
            <mxPoint x="360" y="60" as="sourcePoint" />
            <mxPoint x="390" y="40" as="targetPoint" />
            <Array as="points">
              <mxPoint x="352" y="60" />
            </Array>
          </mxGeometry>
        </mxCell>
        <mxCell id="BvcUv2XEzLSBkX9pHvXN-27" value="c5" style="edgeLabel;html=1;align=center;verticalAlign=middle;resizable=0;points=[];" vertex="1" connectable="0" parent="BvcUv2XEzLSBkX9pHvXN-25">
          <mxGeometry x="-0.8825" y="-1" relative="1" as="geometry">
            <mxPoint x="6" as="offset" />
          </mxGeometry>
        </mxCell>
        <mxCell id="BvcUv2XEzLSBkX9pHvXN-28" value="" style="endArrow=classic;html=1;rounded=0;entryX=0;entryY=0.16111111111111112;entryDx=0;entryDy=3;entryPerimeter=0;" edge="1" parent="1" target="SWe4U_7ybFZL8F2LdfND-54">
          <mxGeometry width="50" height="50" relative="1" as="geometry">
            <mxPoint x="530" y="117" as="sourcePoint" />
            <mxPoint x="540" y="90" as="targetPoint" />
          </mxGeometry>
        </mxCell>
        <mxCell id="BvcUv2XEzLSBkX9pHvXN-29" value="c3" style="edgeLabel;html=1;align=center;verticalAlign=middle;resizable=0;points=[];" vertex="1" connectable="0" parent="BvcUv2XEzLSBkX9pHvXN-28">
          <mxGeometry x="-0.7243" relative="1" as="geometry">
            <mxPoint x="5" y="-1" as="offset" />
          </mxGeometry>
        </mxCell>
        <mxCell id="BvcUv2XEzLSBkX9pHvXN-30" value="" style="ellipse;whiteSpace=wrap;html=1;aspect=fixed;fillColor=#000000;" vertex="1" parent="1">
          <mxGeometry x="348.5" y="137" width="3" height="3" as="geometry" />
        </mxCell>
        <mxCell id="BvcUv2XEzLSBkX9pHvXN-33" value="" style="endArrow=classic;html=1;rounded=0;entryX=0.175;entryY=0.75;entryDx=0;entryDy=0;entryPerimeter=0;" edge="1" parent="1" target="SWe4U_7ybFZL8F2LdfND-122">
          <mxGeometry width="50" height="50" relative="1" as="geometry">
            <mxPoint x="138" y="59" as="sourcePoint" />
            <mxPoint x="145" y="59" as="targetPoint" />
            <Array as="points">
              <mxPoint x="151" y="59" />
            </Array>
          </mxGeometry>
        </mxCell>
        <mxCell id="BvcUv2XEzLSBkX9pHvXN-34" value="c2" style="edgeLabel;html=1;align=center;verticalAlign=middle;resizable=0;points=[];" vertex="1" connectable="0" parent="BvcUv2XEzLSBkX9pHvXN-33">
          <mxGeometry x="-0.8309" relative="1" as="geometry">
            <mxPoint x="-2" y="-1" as="offset" />
          </mxGeometry>
        </mxCell>
        <mxCell id="BvcUv2XEzLSBkX9pHvXN-35" value="" style="endArrow=classic;html=1;rounded=0;entryX=0.175;entryY=0.25;entryDx=0;entryDy=0;entryPerimeter=0;" edge="1" parent="1" target="SWe4U_7ybFZL8F2LdfND-122">
          <mxGeometry width="50" height="50" relative="1" as="geometry">
            <mxPoint x="172" y="59" as="sourcePoint" />
            <mxPoint x="206" y="32" as="targetPoint" />
            <Array as="points">
              <mxPoint x="161" y="59" />
            </Array>
          </mxGeometry>
        </mxCell>
        <mxCell id="BvcUv2XEzLSBkX9pHvXN-36" value="c5" style="edgeLabel;html=1;align=center;verticalAlign=middle;resizable=0;points=[];" vertex="1" connectable="0" parent="BvcUv2XEzLSBkX9pHvXN-35">
          <mxGeometry x="-0.7878" relative="1" as="geometry">
            <mxPoint x="2" y="-1" as="offset" />
          </mxGeometry>
        </mxCell>
        <mxCell id="BvcUv2XEzLSBkX9pHvXN-41" value="c10" style="edgeLabel;html=1;align=center;verticalAlign=middle;resizable=0;points=[];" vertex="1" connectable="0" parent="1">
          <mxGeometry x="263" y="265.0033333333334" as="geometry">
            <mxPoint x="-3" y="-96" as="offset" />
          </mxGeometry>
        </mxCell>
        <mxCell id="BvcUv2XEzLSBkX9pHvXN-45" value="" style="endArrow=none;html=1;rounded=0;" edge="1" parent="1">
          <mxGeometry width="50" height="50" relative="1" as="geometry">
            <mxPoint x="413" y="205" as="sourcePoint" />
            <mxPoint x="419" y="200" as="targetPoint" />
          </mxGeometry>
        </mxCell>
        <mxCell id="BvcUv2XEzLSBkX9pHvXN-46" value="&lt;font style=&quot;font-size: 8px;&quot;&gt;32&lt;/font&gt;" style="text;html=1;align=center;verticalAlign=middle;whiteSpace=wrap;rounded=0;" vertex="1" parent="1">
          <mxGeometry x="413" y="188" width="11" height="10" as="geometry" />
        </mxCell>
        <mxCell id="BvcUv2XEzLSBkX9pHvXN-47" value="" style="endArrow=none;html=1;rounded=0;" edge="1" parent="1">
          <mxGeometry width="50" height="50" relative="1" as="geometry">
            <mxPoint x="525" y="169" as="sourcePoint" />
            <mxPoint x="531" y="164" as="targetPoint" />
          </mxGeometry>
        </mxCell>
        <mxCell id="BvcUv2XEzLSBkX9pHvXN-48" value="&lt;font style=&quot;font-size: 8px;&quot;&gt;33&lt;/font&gt;" style="text;html=1;align=center;verticalAlign=middle;whiteSpace=wrap;rounded=0;" vertex="1" parent="1">
          <mxGeometry x="525" y="153" width="11" height="10" as="geometry" />
        </mxCell>
        <mxCell id="BvcUv2XEzLSBkX9pHvXN-49" value="" style="ellipse;whiteSpace=wrap;html=1;aspect=fixed;fillColor=#000000;" vertex="1" parent="1">
          <mxGeometry x="488.5" y="173" width="3" height="3" as="geometry" />
        </mxCell>
        <mxCell id="BvcUv2XEzLSBkX9pHvXN-51" value="" style="endArrow=classic;html=1;rounded=0;entryX=0.094;entryY=0.978;entryDx=0;entryDy=0;entryPerimeter=0;" edge="1" parent="1" target="SWe4U_7ybFZL8F2LdfND-50">
          <mxGeometry width="50" height="50" relative="1" as="geometry">
            <mxPoint x="293" y="200" as="sourcePoint" />
            <mxPoint x="336" y="172" as="targetPoint" />
          </mxGeometry>
        </mxCell>
        <mxCell id="BvcUv2XEzLSBkX9pHvXN-52" value="c0" style="edgeLabel;html=1;align=center;verticalAlign=middle;resizable=0;points=[];" vertex="1" connectable="0" parent="BvcUv2XEzLSBkX9pHvXN-51">
          <mxGeometry x="-0.5232" relative="1" as="geometry">
            <mxPoint y="8" as="offset" />
          </mxGeometry>
        </mxCell>
        <mxCell id="BvcUv2XEzLSBkX9pHvXN-53" value="" style="endArrow=classic;html=1;rounded=0;entryX=0.094;entryY=0.978;entryDx=0;entryDy=0;entryPerimeter=0;" edge="1" parent="1">
          <mxGeometry width="50" height="50" relative="1" as="geometry">
            <mxPoint x="308" y="200" as="sourcePoint" />
            <mxPoint x="308" y="186" as="targetPoint" />
          </mxGeometry>
        </mxCell>
        <mxCell id="BvcUv2XEzLSBkX9pHvXN-54" value="c5" style="edgeLabel;html=1;align=center;verticalAlign=middle;resizable=0;points=[];" vertex="1" connectable="0" parent="BvcUv2XEzLSBkX9pHvXN-53">
          <mxGeometry x="-0.5232" relative="1" as="geometry">
            <mxPoint y="8" as="offset" />
          </mxGeometry>
        </mxCell>
        <mxCell id="BvcUv2XEzLSBkX9pHvXN-55" value="" style="endArrow=classic;html=1;rounded=0;entryX=0.094;entryY=0.978;entryDx=0;entryDy=0;entryPerimeter=0;" edge="1" parent="1">
          <mxGeometry width="50" height="50" relative="1" as="geometry">
            <mxPoint x="322" y="200" as="sourcePoint" />
            <mxPoint x="322" y="186" as="targetPoint" />
          </mxGeometry>
        </mxCell>
        <mxCell id="BvcUv2XEzLSBkX9pHvXN-56" value="c9" style="edgeLabel;html=1;align=center;verticalAlign=middle;resizable=0;points=[];" vertex="1" connectable="0" parent="BvcUv2XEzLSBkX9pHvXN-55">
          <mxGeometry x="-0.5232" relative="1" as="geometry">
            <mxPoint y="8" as="offset" />
          </mxGeometry>
        </mxCell>
        <mxCell id="BvcUv2XEzLSBkX9pHvXN-57" value="" style="ellipse;whiteSpace=wrap;html=1;aspect=fixed;fillColor=#000000;" vertex="1" parent="1">
          <mxGeometry x="529.5" y="268" width="3" height="3" as="geometry" />
        </mxCell>
        <mxCell id="BvcUv2XEzLSBkX9pHvXN-58" value="" style="ellipse;whiteSpace=wrap;html=1;aspect=fixed;fillColor=#000000;" vertex="1" parent="1">
          <mxGeometry x="597" y="149" width="3" height="3" as="geometry" />
        </mxCell>
        <mxCell id="BvcUv2XEzLSBkX9pHvXN-59" value="" style="endArrow=classic;html=1;rounded=0;exitX=1;exitY=0.5;exitDx=0;exitDy=-5;exitPerimeter=0;entryX=0.017;entryY=0.37;entryDx=0;entryDy=0;entryPerimeter=0;" edge="1" parent="1" source="SWe4U_7ybFZL8F2LdfND-85" target="MTHECDVv07HErPj8eWL1-40">
          <mxGeometry width="50" height="50" relative="1" as="geometry">
            <mxPoint x="495" y="260" as="sourcePoint" />
            <mxPoint x="545" y="210" as="targetPoint" />
            <Array as="points">
              <mxPoint x="589" y="219" />
            </Array>
          </mxGeometry>
        </mxCell>
        <mxCell id="BvcUv2XEzLSBkX9pHvXN-60" value="" style="ellipse;whiteSpace=wrap;html=1;aspect=fixed;fillColor=#000000;" vertex="1" parent="1">
          <mxGeometry x="330.5" y="153" width="3" height="3" as="geometry" />
        </mxCell>
        <mxCell id="BvcUv2XEzLSBkX9pHvXN-61" value="" style="endArrow=none;html=1;rounded=0;exitX=1;exitY=0.5466101694915254;exitDx=0;exitDy=3;exitPerimeter=0;" edge="1" parent="1">
          <mxGeometry width="50" height="50" relative="1" as="geometry">
            <mxPoint x="235.74999999999994" y="162.50000000000003" as="sourcePoint" />
            <mxPoint x="227" y="152" as="targetPoint" />
            <Array as="points">
              <mxPoint x="236" y="152" />
            </Array>
          </mxGeometry>
        </mxCell>
        <mxCell id="BvcUv2XEzLSBkX9pHvXN-62" value="" style="ellipse;whiteSpace=wrap;html=1;aspect=fixed;fillColor=#000000;" vertex="1" parent="1">
          <mxGeometry x="234.5" y="154" width="3" height="3" as="geometry" />
        </mxCell>
        <mxCell id="BvcUv2XEzLSBkX9pHvXN-64" value="" style="endArrow=none;html=1;rounded=0;entryX=1.249;entryY=-0.291;entryDx=0;entryDy=0;entryPerimeter=0;" edge="1" parent="1" target="BvcUv2XEzLSBkX9pHvXN-69">
          <mxGeometry width="50" height="50" relative="1" as="geometry">
            <mxPoint x="332" y="154" as="sourcePoint" />
            <mxPoint x="293" y="131" as="targetPoint" />
          </mxGeometry>
        </mxCell>
        <mxCell id="BvcUv2XEzLSBkX9pHvXN-68" value="" style="endArrow=none;html=1;rounded=0;" edge="1" parent="1">
          <mxGeometry width="50" height="50" relative="1" as="geometry">
            <mxPoint x="329" y="132" as="sourcePoint" />
            <mxPoint x="335" y="127" as="targetPoint" />
          </mxGeometry>
        </mxCell>
        <mxCell id="BvcUv2XEzLSBkX9pHvXN-69" value="&lt;font style=&quot;font-size: 8px;&quot;&gt;32&lt;/font&gt;" style="text;html=1;align=center;verticalAlign=middle;whiteSpace=wrap;rounded=0;" vertex="1" parent="1">
          <mxGeometry x="318" y="123" width="11" height="10" as="geometry" />
        </mxCell>
        <mxCell id="BvcUv2XEzLSBkX9pHvXN-70" value="" style="endArrow=none;html=1;rounded=0;" edge="1" parent="1">
          <mxGeometry width="50" height="50" relative="1" as="geometry">
            <mxPoint x="167.5" y="196" as="sourcePoint" />
            <mxPoint x="173.5" y="191" as="targetPoint" />
          </mxGeometry>
        </mxCell>
        <mxCell id="BvcUv2XEzLSBkX9pHvXN-71" value="&lt;font style=&quot;font-size: 8px;&quot;&gt;33&lt;/font&gt;" style="text;html=1;align=center;verticalAlign=middle;whiteSpace=wrap;rounded=0;" vertex="1" parent="1">
          <mxGeometry x="173" y="188" width="11" height="10" as="geometry" />
        </mxCell>
        <mxCell id="BvcUv2XEzLSBkX9pHvXN-73" value="" style="endArrow=classic;html=1;rounded=0;" edge="1" parent="1">
          <mxGeometry width="50" height="50" relative="1" as="geometry">
            <mxPoint x="142" y="355" as="sourcePoint" />
            <mxPoint x="128" y="355" as="targetPoint" />
          </mxGeometry>
        </mxCell>
        <mxCell id="BvcUv2XEzLSBkX9pHvXN-74" value="c12" style="edgeLabel;html=1;align=center;verticalAlign=middle;resizable=0;points=[];" vertex="1" connectable="0" parent="BvcUv2XEzLSBkX9pHvXN-73">
          <mxGeometry x="0.3143" relative="1" as="geometry">
            <mxPoint x="17" y="-1" as="offset" />
          </mxGeometry>
        </mxCell>
        <mxCell id="BvcUv2XEzLSBkX9pHvXN-75" value="" style="endArrow=none;html=1;rounded=0;" edge="1" parent="1">
          <mxGeometry width="50" height="50" relative="1" as="geometry">
            <mxPoint x="124.5" y="304" as="sourcePoint" />
            <mxPoint x="130.5" y="299" as="targetPoint" />
          </mxGeometry>
        </mxCell>
        <mxCell id="BvcUv2XEzLSBkX9pHvXN-76" value="&lt;font style=&quot;font-size: 8px;&quot;&gt;32&lt;/font&gt;" style="text;html=1;align=center;verticalAlign=middle;whiteSpace=wrap;rounded=0;" vertex="1" parent="1">
          <mxGeometry x="130" y="296" width="11" height="10" as="geometry" />
        </mxCell>
        <mxCell id="BvcUv2XEzLSBkX9pHvXN-80" value="0&amp;nbsp;&amp;nbsp; 1" style="shape=trapezoid;perimeter=trapezoidPerimeter;whiteSpace=wrap;html=1;fixedSize=1;size=10;" vertex="1" parent="1">
          <mxGeometry x="137" y="213" width="51" height="18" as="geometry" />
        </mxCell>
        <mxCell id="BvcUv2XEzLSBkX9pHvXN-81" value="" style="endArrow=none;html=1;rounded=0;exitX=0.663;exitY=-0.01;exitDx=0;exitDy=0;exitPerimeter=0;entryX=0;entryY=0.5;entryDx=0;entryDy=0;" edge="1" parent="1" source="BvcUv2XEzLSBkX9pHvXN-80" target="BvcUv2XEzLSBkX9pHvXN-30">
          <mxGeometry width="50" height="50" relative="1" as="geometry">
            <mxPoint x="304" y="234" as="sourcePoint" />
            <mxPoint x="354" y="184" as="targetPoint" />
            <Array as="points">
              <mxPoint x="171" y="138" />
            </Array>
          </mxGeometry>
        </mxCell>
        <mxCell id="BvcUv2XEzLSBkX9pHvXN-82" value="" style="endArrow=none;html=1;rounded=0;entryX=1;entryY=0.5;entryDx=0;entryDy=0;exitX=0.25;exitY=1;exitDx=0;exitDy=0;" edge="1" parent="1" source="MTHECDVv07HErPj8eWL1-12" target="BvcUv2XEzLSBkX9pHvXN-30">
          <mxGeometry width="50" height="50" relative="1" as="geometry">
            <mxPoint x="544" y="378" as="sourcePoint" />
            <mxPoint x="377" y="147" as="targetPoint" />
            <Array as="points">
              <mxPoint x="310" y="410" />
              <mxPoint x="545" y="410" />
              <mxPoint x="544" y="140" />
            </Array>
          </mxGeometry>
        </mxCell>
        <mxCell id="BvcUv2XEzLSBkX9pHvXN-83" value="" style="endArrow=classic;html=1;rounded=0;" edge="1" parent="1">
          <mxGeometry width="50" height="50" relative="1" as="geometry">
            <mxPoint x="558" y="321" as="sourcePoint" />
            <mxPoint x="544" y="321" as="targetPoint" />
          </mxGeometry>
        </mxCell>
        <mxCell id="BvcUv2XEzLSBkX9pHvXN-84" value="c0" style="edgeLabel;html=1;align=center;verticalAlign=middle;resizable=0;points=[];" vertex="1" connectable="0" parent="BvcUv2XEzLSBkX9pHvXN-83">
          <mxGeometry x="-0.0952" y="1" relative="1" as="geometry">
            <mxPoint x="10" y="-2" as="offset" />
          </mxGeometry>
        </mxCell>
        <mxCell id="BvcUv2XEzLSBkX9pHvXN-85" value="" style="endArrow=classic;html=1;rounded=0;" edge="1" parent="1">
          <mxGeometry width="50" height="50" relative="1" as="geometry">
            <mxPoint x="189" y="335" as="sourcePoint" />
            <mxPoint x="189" y="320" as="targetPoint" />
          </mxGeometry>
        </mxCell>
        <mxCell id="BvcUv2XEzLSBkX9pHvXN-86" value="c6" style="edgeLabel;html=1;align=center;verticalAlign=middle;resizable=0;points=[];" vertex="1" connectable="0" parent="BvcUv2XEzLSBkX9pHvXN-85">
          <mxGeometry x="-0.5152" relative="1" as="geometry">
            <mxPoint y="7" as="offset" />
          </mxGeometry>
        </mxCell>
        <mxCell id="BvcUv2XEzLSBkX9pHvXN-87" value="" style="endArrow=classic;html=1;rounded=0;entryX=0.604;entryY=0.989;entryDx=0;entryDy=0;entryPerimeter=0;exitX=0.351;exitY=0.011;exitDx=0;exitDy=0;exitPerimeter=0;" edge="1" parent="1" source="BvcUv2XEzLSBkX9pHvXN-80" target="MTHECDVv07HErPj8eWL1-1">
          <mxGeometry width="50" height="50" relative="1" as="geometry">
            <mxPoint x="107" y="202" as="sourcePoint" />
            <mxPoint x="157" y="152" as="targetPoint" />
          </mxGeometry>
        </mxCell>
        <mxCell id="BvcUv2XEzLSBkX9pHvXN-88" value="" style="endArrow=none;html=1;rounded=0;exitX=0.092;exitY=1.009;exitDx=0;exitDy=0;exitPerimeter=0;" edge="1" parent="1" source="MTHECDVv07HErPj8eWL1-1">
          <mxGeometry width="50" height="50" relative="1" as="geometry">
            <mxPoint x="72" y="150" as="sourcePoint" />
            <mxPoint x="105" y="138" as="targetPoint" />
            <Array as="points">
              <mxPoint x="83" y="138" />
            </Array>
          </mxGeometry>
        </mxCell>
        <mxCell id="BvcUv2XEzLSBkX9pHvXN-89" value="" style="endArrow=none;html=1;rounded=0;entryX=0.379;entryY=0.996;entryDx=0;entryDy=0;entryPerimeter=0;" edge="1" parent="1" target="MTHECDVv07HErPj8eWL1-1">
          <mxGeometry width="50" height="50" relative="1" as="geometry">
            <mxPoint x="105" y="138" as="sourcePoint" />
            <mxPoint x="133" y="99" as="targetPoint" />
            <Array as="points">
              <mxPoint x="123" y="138" />
            </Array>
          </mxGeometry>
        </mxCell>
        <mxCell id="BvcUv2XEzLSBkX9pHvXN-90" value="" style="ellipse;whiteSpace=wrap;html=1;aspect=fixed;fillColor=#000000;" vertex="1" parent="1">
          <mxGeometry x="103" y="136" width="3" height="3" as="geometry" />
        </mxCell>
        <mxCell id="BvcUv2XEzLSBkX9pHvXN-92" value="" style="endArrow=none;html=1;rounded=0;" edge="1" parent="1">
          <mxGeometry width="50" height="50" relative="1" as="geometry">
            <mxPoint x="102" y="192" as="sourcePoint" />
            <mxPoint x="108" y="187" as="targetPoint" />
          </mxGeometry>
        </mxCell>
        <mxCell id="BvcUv2XEzLSBkX9pHvXN-93" value="&lt;font style=&quot;font-size: 8px;&quot;&gt;3&lt;/font&gt;" style="text;html=1;align=center;verticalAlign=middle;whiteSpace=wrap;rounded=0;" vertex="1" parent="1">
          <mxGeometry x="106" y="183" width="11" height="10" as="geometry" />
        </mxCell>
        <mxCell id="BvcUv2XEzLSBkX9pHvXN-94" value="" style="endArrow=classic;html=1;rounded=0;exitX=0.679;exitY=0.998;exitDx=0;exitDy=0;exitPerimeter=0;entryX=1;entryY=0.18220338983050846;entryDx=0;entryDy=3;entryPerimeter=0;" edge="1" parent="1" source="MTHECDVv07HErPj8eWL1-1" target="SWe4U_7ybFZL8F2LdfND-70">
          <mxGeometry width="50" height="50" relative="1" as="geometry">
            <mxPoint x="184" y="170" as="sourcePoint" />
            <mxPoint x="234" y="120" as="targetPoint" />
            <Array as="points">
              <mxPoint x="165" y="162" />
            </Array>
          </mxGeometry>
        </mxCell>
        <mxCell id="BvcUv2XEzLSBkX9pHvXN-95" value="" style="endArrow=none;html=1;rounded=0;" edge="1" parent="1">
          <mxGeometry width="50" height="50" relative="1" as="geometry">
            <mxPoint x="161.5" y="131" as="sourcePoint" />
            <mxPoint x="167.5" y="126" as="targetPoint" />
          </mxGeometry>
        </mxCell>
        <mxCell id="BvcUv2XEzLSBkX9pHvXN-96" value="&lt;font style=&quot;font-size: 8px;&quot;&gt;33&lt;/font&gt;" style="text;html=1;align=center;verticalAlign=middle;whiteSpace=wrap;rounded=0;" vertex="1" parent="1">
          <mxGeometry x="167" y="123" width="11" height="10" as="geometry" />
        </mxCell>
        <mxCell id="BvcUv2XEzLSBkX9pHvXN-97" value="" style="ellipse;whiteSpace=wrap;html=1;aspect=fixed;fillColor=#000000;" vertex="1" parent="1">
          <mxGeometry x="164" y="160" width="3" height="3" as="geometry" />
        </mxCell>
        <mxCell id="BvcUv2XEzLSBkX9pHvXN-98" value="" style="endArrow=none;html=1;rounded=0;" edge="1" parent="1">
          <mxGeometry width="50" height="50" relative="1" as="geometry">
            <mxPoint x="226.5" y="222" as="sourcePoint" />
            <mxPoint x="232.5" y="217" as="targetPoint" />
          </mxGeometry>
        </mxCell>
        <mxCell id="BvcUv2XEzLSBkX9pHvXN-99" value="&lt;font style=&quot;font-size: 8px;&quot;&gt;33&lt;/font&gt;" style="text;html=1;align=center;verticalAlign=middle;whiteSpace=wrap;rounded=0;" vertex="1" parent="1">
          <mxGeometry x="232" y="214" width="11" height="10" as="geometry" />
        </mxCell>
        <mxCell id="BvcUv2XEzLSBkX9pHvXN-100" value="" style="endArrow=none;html=1;rounded=0;" edge="1" parent="1">
          <mxGeometry width="50" height="50" relative="1" as="geometry">
            <mxPoint x="232.5" y="167" as="sourcePoint" />
            <mxPoint x="238.5" y="162" as="targetPoint" />
          </mxGeometry>
        </mxCell>
        <mxCell id="BvcUv2XEzLSBkX9pHvXN-101" value="&lt;font style=&quot;font-size: 8px;&quot;&gt;33&lt;/font&gt;" style="text;html=1;align=center;verticalAlign=middle;whiteSpace=wrap;rounded=0;" vertex="1" parent="1">
          <mxGeometry x="238" y="159" width="11" height="10" as="geometry" />
        </mxCell>
        <mxCell id="BvcUv2XEzLSBkX9pHvXN-102" value="" style="endArrow=classic;html=1;rounded=0;entryX=1;entryY=0.5;entryDx=0;entryDy=0;" edge="1" parent="1" target="BvcUv2XEzLSBkX9pHvXN-80">
          <mxGeometry width="50" height="50" relative="1" as="geometry">
            <mxPoint x="197" y="222" as="sourcePoint" />
            <mxPoint x="260" y="203" as="targetPoint" />
            <Array as="points">
              <mxPoint x="200" y="222" />
              <mxPoint x="197" y="222" />
            </Array>
          </mxGeometry>
        </mxCell>
        <mxCell id="BvcUv2XEzLSBkX9pHvXN-103" value="c10" style="edgeLabel;html=1;align=center;verticalAlign=middle;resizable=0;points=[];" vertex="1" connectable="0" parent="BvcUv2XEzLSBkX9pHvXN-102">
          <mxGeometry x="0.0688" relative="1" as="geometry">
            <mxPoint x="13" y="-1" as="offset" />
          </mxGeometry>
        </mxCell>
        <mxCell id="BvcUv2XEzLSBkX9pHvXN-105" value="" style="ellipse;whiteSpace=wrap;html=1;aspect=fixed;" vertex="1" parent="1">
          <mxGeometry x="404" y="317" width="6" height="6" as="geometry" />
        </mxCell>
        <mxCell id="BvcUv2XEzLSBkX9pHvXN-106" value="" style="endArrow=classic;html=1;rounded=0;entryX=0;entryY=0.5;entryDx=0;entryDy=0;entryPerimeter=0;" edge="1" parent="1" target="SWe4U_7ybFZL8F2LdfND-28">
          <mxGeometry width="50" height="50" relative="1" as="geometry">
            <mxPoint x="431" y="322" as="sourcePoint" />
            <mxPoint x="431" y="342" as="targetPoint" />
          </mxGeometry>
        </mxCell>
        <mxCell id="BvcUv2XEzLSBkX9pHvXN-107" value="" style="ellipse;whiteSpace=wrap;html=1;aspect=fixed;" vertex="1" parent="1">
          <mxGeometry x="462" y="317" width="6" height="6" as="geometry" />
        </mxCell>
        <mxCell id="BvcUv2XEzLSBkX9pHvXN-108" value="" style="ellipse;whiteSpace=wrap;html=1;aspect=fixed;" vertex="1" parent="1">
          <mxGeometry x="428" y="317" width="6" height="6" as="geometry" />
        </mxCell>
      </root>
    </mxGraphModel>
  </diagram>
</mxfile>
